<svg width="232" height="84" viewBox="0 0 232 84" fill="none" xmlns="http://www.w3.org/2000/svg">
<path d="M53.5 48.5H195C199.142 48.5 202.5 51.8579 202.5 56V64C202.5 68.1421 199.142 71.5 195 71.5H53.5V48.5Z" fill="#003343"/>
<path d="M53.5 48.5H195C199.142 48.5 202.5 51.8579 202.5 56V64C202.5 68.1421 199.142 71.5 195 71.5H53.5V48.5Z" stroke="black"/>
<g style="mix-blend-mode:soft-light">
<path d="M53 49H203V59H53V49Z" fill="#D9D9D9" fill-opacity="0.5"/>
</g>
<rect x="128" y="55" width="65" height="10" rx="1" fill="#00141B"/>
<path d="M79 56C79 55.4477 79.4477 55 80 55H129V65H80C79.4477 65 79 64.5523 79 64V56Z" fill="#4FEA4F"/>
<g clip-path="url(#clip0_2498_223)">
<path d="M53 2L195 2C199.418 2 203 5.58172 203 10V19C203 23.4183 199.418 27 195 27L53 27V2Z" fill="#003343"/>
<g style="mix-blend-mode:soft-light">
<path d="M56 2L206 2V12L56 12V2Z" fill="#D9D9D9" fill-opacity="0.5"/>
</g>
<path d="M87.825 12.585L84 9.74871L80.175 12.585L79 11.7075L84 8L89 11.7075L87.825 12.585ZM87.825 16.2925L84 13.4562L80.175 16.2925L79 15.415L84 11.7075L89 15.415L87.825 16.2925ZM87.825 20L84 17.1637L80.175 20L79 19.1226L84 15.415L89 19.1226L87.825 20Z" fill="white"/>
</g>
<path d="M53.5 2.5L195 2.5C199.142 2.5 202.5 5.85786 202.5 10V19C202.5 23.1421 199.142 26.5 195 26.5L53.5 26.5V2.5Z" stroke="black"/>
<g clip-path="url(#clip1_2498_223)">
<path d="M45 26L195 26C199.418 26 203 29.5817 203 34V44C203 48.4183 199.418 52 195 52H45V26Z" fill="#003343"/>
<g style="mix-blend-mode:soft-light">
<path d="M48 26L206 26V36.4H48V26Z" fill="#D9D9D9" fill-opacity="0.5"/>
</g>
<g clip-path="url(#clip2_2498_223)">
<g filter="url(#filter0_d_2498_223)">
<mask id="path-12-outside-1_2498_223" maskUnits="userSpaceOnUse" x="76.1291" y="28.9253" width="18.8392" height="20.193" fill="black">
<rect fill="white" x="76.1291" y="28.9253" width="18.8392" height="20.193"/>
<path fill-rule="evenodd" clip-rule="evenodd" d="M83.9479 45.787C87.0406 46.8524 90.4548 44.7345 91.5738 41.0564C92.6928 37.3784 91.0929 33.533 88.0003 32.4676C87.9816 32.4612 87.962 32.4544 87.9418 32.4474C87.7642 32.3861 87.5305 32.3055 87.2895 32.2301C87.2076 32.197 87.1245 32.1659 87.0403 32.137C83.9477 31.0715 80.5335 33.1895 79.4145 36.8675C78.2954 40.5456 79.8954 44.3909 82.988 45.4563C82.9981 45.4598 83.0083 45.4633 83.0184 45.4667C83.2513 45.554 83.491 45.6339 83.6973 45.7026C83.7885 45.733 83.8733 45.7613 83.9479 45.787Z"/>
</mask>
<path fill-rule="evenodd" clip-rule="evenodd" d="M83.9479 45.787C87.0406 46.8524 90.4548 44.7345 91.5738 41.0564C92.6928 37.3784 91.0929 33.533 88.0003 32.4676C87.9816 32.4612 87.962 32.4544 87.9418 32.4474C87.7642 32.3861 87.5305 32.3055 87.2895 32.2301C87.2076 32.197 87.1245 32.1659 87.0403 32.137C83.9477 31.0715 80.5335 33.1895 79.4145 36.8675C78.2954 40.5456 79.8954 44.3909 82.988 45.4563C82.9981 45.4598 83.0083 45.4633 83.0184 45.4667C83.2513 45.554 83.491 45.6339 83.6973 45.7026C83.7885 45.733 83.8733 45.7613 83.9479 45.787Z" fill="black"/>
<path d="M88.0003 32.4676L88.2914 31.5109L88.0003 32.4676ZM87.9418 32.4474L88.2334 31.4909L88.2334 31.4909L87.9418 32.4474ZM87.2895 32.2301L86.9498 33.1686L86.9871 33.1836L87.0254 33.1956L87.2895 32.2301ZM87.0403 32.137L87.3314 31.1803L87.0403 32.137ZM79.4145 36.8675L80.3599 37.1932L79.4145 36.8675ZM83.0184 45.4667L83.3348 44.5191L83.3193 44.5133L83.3036 44.508L83.0184 45.4667ZM83.6973 45.7026L83.4157 46.6626L83.4157 46.6626L83.6973 45.7026ZM90.6283 40.7307C89.6242 44.0311 86.672 45.6685 84.239 44.8303L83.6569 46.7437C87.4091 48.0364 91.2854 45.4378 92.5193 41.3821L90.6283 40.7307ZM87.7092 33.4243C90.1422 34.2625 91.6325 37.4303 90.6283 40.7307L92.5193 41.3821C93.7532 37.3265 92.0436 32.8036 88.2914 31.5109L87.7092 33.4243ZM87.6502 33.404C87.6704 33.4109 87.6902 33.4178 87.7092 33.4243L88.2914 31.5109C88.2729 31.5046 88.2537 31.4979 88.2334 31.4909L87.6502 33.404ZM87.0254 33.1956C87.2506 33.2661 87.4714 33.3423 87.6502 33.404L88.2334 31.4909C88.0569 31.43 87.8103 31.3448 87.5536 31.2645L87.0254 33.1956ZM86.7493 33.0937C86.8171 33.117 86.8839 33.142 86.9498 33.1686L87.6291 31.2915C87.5312 31.252 87.4319 31.2149 87.3314 31.1803L86.7493 33.0937ZM80.3599 37.1932C81.3641 33.8928 84.3163 32.2555 86.7493 33.0937L87.3314 31.1803C83.5792 29.8876 79.7029 32.4862 78.469 36.5418L80.3599 37.1932ZM83.2791 44.4996C80.8461 43.6614 79.3558 40.4937 80.3599 37.1932L78.469 36.5418C77.2351 40.5975 78.9447 45.1204 82.6969 46.413L83.2791 44.4996ZM83.3036 44.508C83.2954 44.5052 83.2872 44.5024 83.2791 44.4996L82.6969 46.413C82.709 46.4172 82.7211 46.4213 82.7332 46.4254L83.3036 44.508ZM83.9788 44.7427C83.77 44.6731 83.5476 44.5989 83.3348 44.5191L82.702 46.4143C82.955 46.5091 83.212 46.5947 83.4157 46.6626L83.9788 44.7427ZM84.239 44.8303C84.1586 44.8026 84.0687 44.7727 83.9788 44.7427L83.4157 46.6626C83.5084 46.6934 83.5879 46.7199 83.6569 46.7437L84.239 44.8303Z" fill="black" mask="url(#path-12-outside-1_2498_223)"/>
</g>
<path d="M91.5743 41.0545C90.4556 44.7314 87.0456 46.8498 83.9579 45.7861C83.4896 45.6248 82.6251 45.3645 82.2297 45.0856C80.0178 43.5255 78.6448 40.0465 79.5938 36.9272C80.5635 33.74 83.6719 31.8033 86.3826 32.0156C86.7991 32.0482 87.5977 32.3291 88.009 32.4708C91.0967 33.5346 92.693 37.3776 91.5743 41.0545Z" fill="url(#paint0_radial_2498_223)"/>
<g filter="url(#filter1_d_2498_223)">
<ellipse cx="5.95751" cy="6.96109" rx="5.95751" ry="6.96109" transform="matrix(0.945467 0.325717 -0.291071 0.956701 81.4407 30.2078)" fill="url(#paint1_radial_2498_223)"/>
<ellipse cx="5.95751" cy="6.96109" rx="5.95751" ry="6.96109" transform="matrix(0.945467 0.325717 -0.291071 0.956701 81.4407 30.2078)" fill="url(#paint2_linear_2498_223)" fill-opacity="0.5" style="mix-blend-mode:overlay"/>
<path d="M90.5084 40.6893C89.4105 44.2979 86.0658 46.325 83.0737 45.2942C80.0816 44.2634 78.488 40.5351 79.5859 36.9265C80.6838 33.3179 84.0284 31.2908 87.0205 32.3216C90.0127 33.3524 91.6063 37.0807 90.5084 40.6893Z" stroke="url(#paint3_radial_2498_223)" stroke-width="0.3625"/>
</g>
<g filter="url(#filter2_ii_2498_223)">
<ellipse cx="4.44449" cy="5.17109" rx="4.44449" ry="5.17109" transform="matrix(0.945467 0.325717 -0.291072 0.956701 82.3501 32.4133)" fill="#F3AF29"/>
</g>
<g filter="url(#filter3_dd_2498_223)">
<path fill-rule="evenodd" clip-rule="evenodd" d="M81.9745 37.5365C82.0153 36.8446 82.5545 36.3272 83.2399 36.322L86.7981 36.2949C87.3394 36.2908 87.809 36.7477 87.8298 37.2987C87.8435 37.6602 87.7682 38.0126 87.6107 38.324L85.9693 41.5708C85.7392 42.026 85.2707 42.2963 84.7503 42.2742C84.1965 42.2507 83.6827 41.9009 83.4363 41.3795L82.2298 38.8259C82.0368 38.4176 81.9488 37.973 81.9745 37.5365ZM83.4169 38.1775C83.3735 37.8145 83.6397 37.5131 83.9971 37.5207L85.7796 37.5584C86.0216 37.5635 86.235 37.7528 86.2749 37.9979C86.3015 38.161 86.2789 38.3246 86.2102 38.467L85.2479 40.461C85.1649 40.633 84.9831 40.7282 84.7887 40.7015C84.6171 40.6779 84.4642 40.5629 84.3888 40.4006L83.5136 38.5157C83.4635 38.4078 83.4308 38.2935 83.4169 38.1775Z" fill="url(#paint4_linear_2498_223)"/>
</g>
<g style="mix-blend-mode:multiply">
<path d="M80.7948 39.9466C81.152 42.5877 83.0105 44.1308 85.3109 43.6622C87.7962 43.156 89.2544 40.302 89.123 38.3835L80.7948 39.9466Z" fill="black" fill-opacity="0.11"/>
</g>
</g>
</g>
<path d="M45.5 26.5L195 26.5C199.142 26.5 202.5 29.8579 202.5 34V44C202.5 48.1421 199.142 51.5 195 51.5H45.5V26.5Z" stroke="black"/>
<g filter="url(#filter4_i_2498_223)">
<rect x="1.80005" y="1.80005" width="68.4" height="68.4" rx="8" fill="#00EEFF"/>
</g>
<rect x="1.30005" y="1.30005" width="69.4" height="69.4" rx="8.5" stroke="black"/>
<rect x="7.69995" y="7.69995" width="56.6" height="56.6" rx="4.5" fill="#B541FF" stroke="black"/>
<path d="M21.7142 64.6765H21.4107L21.2706 64.9457L16.9849 73.181L16.8724 73.3972L16.9734 73.619L21.2591 83.0308L21.3925 83.3236H21.7142H50.2856H50.6073L50.7407 83.0308L55.0264 73.619L55.1274 73.3972L55.0149 73.181L50.7291 64.9457L50.5891 64.6765H50.2856H21.7142Z" fill="#003343" stroke="black"/>
<g filter="url(#filter5_di_2498_223)">
<path d="M17.9845 73.4264L22.0176 65.6765H49.9822L54.0153 73.4264L49.9639 82.3236H22.0359L17.9845 73.4264Z" stroke="url(#paint5_linear_2498_223)"/>
</g>
<defs>
<filter id="filter0_d_2498_223" x="78.0723" y="30.8459" width="15.2062" height="16.5944" filterUnits="userSpaceOnUse" color-interpolation-filters="sRGB">
<feFlood flood-opacity="0" result="BackgroundImageFix"/>
<feColorMatrix in="SourceAlpha" type="matrix" values="0 0 0 0 0 0 0 0 0 0 0 0 0 0 0 0 0 0 127 0" result="hardAlpha"/>
<feOffset dx="0.3625" dy="0.3625"/>
<feComposite in2="hardAlpha" operator="out"/>
<feColorMatrix type="matrix" values="0 0 0 0 0 0 0 0 0 0 0 0 0 0 0 0 0 0 0.45 0"/>
<feBlend mode="soft-light" in2="BackgroundImageFix" result="effect1_dropShadow_2498_223"/>
<feBlend mode="normal" in="SourceGraphic" in2="effect1_dropShadow_2498_223" result="shape"/>
</filter>
<filter id="filter1_d_2498_223" x="79.0596" y="31.8694" width="12.3376" height="14.2395" filterUnits="userSpaceOnUse" color-interpolation-filters="sRGB">
<feFlood flood-opacity="0" result="BackgroundImageFix"/>
<feColorMatrix in="SourceAlpha" type="matrix" values="0 0 0 0 0 0 0 0 0 0 0 0 0 0 0 0 0 0 127 0" result="hardAlpha"/>
<feOffset dx="0.3625" dy="0.3625"/>
<feComposite in2="hardAlpha" operator="out"/>
<feColorMatrix type="matrix" values="0 0 0 0 0 0 0 0 0 0 0 0 0 0 0 0 0 0 0.45 0"/>
<feBlend mode="soft-light" in2="BackgroundImageFix" result="effect1_dropShadow_2498_223"/>
<feBlend mode="normal" in="SourceGraphic" in2="effect1_dropShadow_2498_223" result="shape"/>
</filter>
<filter id="filter2_ii_2498_223" x="80.5823" y="33.6521" width="8.92944" height="10.312" filterUnits="userSpaceOnUse" color-interpolation-filters="sRGB">
<feFlood flood-opacity="0" result="BackgroundImageFix"/>
<feBlend mode="normal" in="SourceGraphic" in2="BackgroundImageFix" result="shape"/>
<feColorMatrix in="SourceAlpha" type="matrix" values="0 0 0 0 0 0 0 0 0 0 0 0 0 0 0 0 0 0 127 0" result="hardAlpha"/>
<feOffset dx="0.3625" dy="0.3625"/>
<feComposite in2="hardAlpha" operator="arithmetic" k2="-1" k3="1"/>
<feColorMatrix type="matrix" values="0 0 0 0 0 0 0 0 0 0 0 0 0 0 0 0 0 0 1 0"/>
<feBlend mode="soft-light" in2="shape" result="effect1_innerShadow_2498_223"/>
<feColorMatrix in="SourceAlpha" type="matrix" values="0 0 0 0 0 0 0 0 0 0 0 0 0 0 0 0 0 0 127 0" result="hardAlpha"/>
<feOffset dx="-0.3625"/>
<feComposite in2="hardAlpha" operator="arithmetic" k2="-1" k3="1"/>
<feColorMatrix type="matrix" values="0 0 0 0 0.984342 0 0 0 0 0.77635 0 0 0 0 0.584357 0 0 0 0.4 0"/>
<feBlend mode="plus-lighter" in2="effect1_innerShadow_2498_223" result="effect2_innerShadow_2498_223"/>
</filter>
<filter id="filter3_dd_2498_223" x="81.7051" y="35.5056" width="6.82123" height="7.78877" filterUnits="userSpaceOnUse" color-interpolation-filters="sRGB">
<feFlood flood-opacity="0" result="BackgroundImageFix"/>
<feColorMatrix in="SourceAlpha" type="matrix" values="0 0 0 0 0 0 0 0 0 0 0 0 0 0 0 0 0 0 127 0" result="hardAlpha"/>
<feOffset dx="0.435" dy="0.3625"/>
<feComposite in2="hardAlpha" operator="out"/>
<feColorMatrix type="matrix" values="0 0 0 0 0 0 0 0 0 0 0 0 0 0 0 0 0 0 1 0"/>
<feBlend mode="soft-light" in2="BackgroundImageFix" result="effect1_dropShadow_2498_223"/>
<feColorMatrix in="SourceAlpha" type="matrix" values="0 0 0 0 0 0 0 0 0 0 0 0 0 0 0 0 0 0 127 0" result="hardAlpha"/>
<feOffset dx="0.435" dy="0.3625"/>
<feComposite in2="hardAlpha" operator="out"/>
<feColorMatrix type="matrix" values="0 0 0 0 0.627295 0 0 0 0 0.371202 0 0 0 0 0.0705707 0 0 0 0.4 0"/>
<feBlend mode="multiply" in2="effect1_dropShadow_2498_223" result="effect2_dropShadow_2498_223"/>
<feBlend mode="normal" in="SourceGraphic" in2="effect2_dropShadow_2498_223" result="shape"/>
</filter>
<filter id="filter4_i_2498_223" x="0.800049" y="0.800049" width="70.3999" height="70.3999" filterUnits="userSpaceOnUse" color-interpolation-filters="sRGB">
<feFlood flood-opacity="0" result="BackgroundImageFix"/>
<feBlend mode="normal" in="SourceGraphic" in2="BackgroundImageFix" result="shape"/>
<feColorMatrix in="SourceAlpha" type="matrix" values="0 0 0 0 0 0 0 0 0 0 0 0 0 0 0 0 0 0 127 0" result="hardAlpha"/>
<feOffset dx="-1" dy="-1"/>
<feComposite in2="hardAlpha" operator="arithmetic" k2="-1" k3="1"/>
<feColorMatrix type="matrix" values="0 0 0 0 0 0 0 0 0 0 0 0 0 0 0 0 0 0 0.25 0"/>
<feBlend mode="hard-light" in2="shape" result="effect1_innerShadow_2498_223"/>
</filter>
<filter id="filter5_di_2498_223" x="17.4285" y="65.1765" width="37.6428" height="18.447" filterUnits="userSpaceOnUse" color-interpolation-filters="sRGB">
<feFlood flood-opacity="0" result="BackgroundImageFix"/>
<feColorMatrix in="SourceAlpha" type="matrix" values="0 0 0 0 0 0 0 0 0 0 0 0 0 0 0 0 0 0 127 0" result="hardAlpha"/>
<feOffset dx="0.5" dy="0.8"/>
<feColorMatrix type="matrix" values="0 0 0 0 0 0 0 0 0 0 0 0 0 0 0 0 0 0 1 0"/>
<feBlend mode="soft-light" in2="BackgroundImageFix" result="effect1_dropShadow_2498_223"/>
<feBlend mode="normal" in="SourceGraphic" in2="effect1_dropShadow_2498_223" result="shape"/>
<feColorMatrix in="SourceAlpha" type="matrix" values="0 0 0 0 0 0 0 0 0 0 0 0 0 0 0 0 0 0 127 0" result="hardAlpha"/>
<feOffset dx="0.3" dy="0.3"/>
<feComposite in2="hardAlpha" operator="arithmetic" k2="-1" k3="1"/>
<feColorMatrix type="matrix" values="0 0 0 0 1 0 0 0 0 1 0 0 0 0 1 0 0 0 0.45 0"/>
<feBlend mode="hard-light" in2="shape" result="effect2_innerShadow_2498_223"/>
</filter>
<radialGradient id="paint0_radial_2498_223" cx="0" cy="0" r="1" gradientUnits="userSpaceOnUse" gradientTransform="translate(84.8226 46.7144) rotate(-83.3492) scale(13.7301 11.3203)">
<stop offset="0.356962" stop-color="#99541B"/>
<stop offset="0.788512" stop-color="#EA7E26"/>
<stop offset="1" stop-color="#EFBB57"/>
</radialGradient>
<radialGradient id="paint1_radial_2498_223" cx="0" cy="0" r="1" gradientUnits="userSpaceOnUse" gradientTransform="translate(7.40433 14.5188) rotate(-100.417) scale(13.6499 11.4829)">
<stop offset="0.788512" stop-color="#FFB800"/>
<stop offset="1" stop-color="#F9DE68"/>
</radialGradient>
<linearGradient id="paint2_linear_2498_223" x1="2.74021" y1="2.14801" x2="10.6151" y2="11.1683" gradientUnits="userSpaceOnUse">
<stop stop-color="white"/>
<stop offset="0.555853" stop-color="white" stop-opacity="0"/>
</linearGradient>
<radialGradient id="paint3_radial_2498_223" cx="0" cy="0" r="1" gradientUnits="userSpaceOnUse" gradientTransform="translate(86.0943 44.4242) rotate(-98.0739) scale(12.2779 10.8985)">
<stop offset="0.0939274" stop-color="#824A0F" stop-opacity="0.45"/>
<stop offset="0.584638" stop-color="#E1A568"/>
<stop offset="0.8" stop-color="#FFD9B1" stop-opacity="0.43"/>
<stop offset="0.965" stop-color="#FFE0C1"/>
</radialGradient>
<linearGradient id="paint4_linear_2498_223" x1="84.9887" y1="36.0367" x2="84.1434" y2="42.1972" gradientUnits="userSpaceOnUse">
<stop stop-color="#FFD80E"/>
<stop offset="1" stop-color="#FFDD2B"/>
</linearGradient>
<linearGradient id="paint5_linear_2498_223" x1="21.7142" y1="65.7647" x2="38.5698" y2="85.5265" gradientUnits="userSpaceOnUse">
<stop stop-color="#E6DEB9"/>
<stop offset="1" stop-color="#EBAE5B"/>
</linearGradient>
<clipPath id="clip0_2498_223">
<path d="M53 2L195 2C199.418 2 203 5.58172 203 10V19C203 23.4183 199.418 27 195 27L53 27V2Z" fill="white"/>
</clipPath>
<clipPath id="clip1_2498_223">
<path d="M45 26L195 26C199.418 26 203 29.5817 203 34V44C203 48.4183 199.418 52 195 52H45V26Z" fill="white"/>
</clipPath>
<clipPath id="clip2_2498_223">
<rect width="16" height="16" fill="white" transform="translate(78 31)"/>
</clipPath>
</defs>
</svg>
